<svg xmlns="http://www.w3.org/2000/svg" viewBox="0 0 64 64"><path fill="#687e87" d="M60,58.23H4c-2.21,0-4-1.79-4-4V11.94c0-2.21,1.79-4,4-4h56c2.21,0,4,1.79,4,4v42.29   C64,56.44,62.21,58.23,60,58.23z"/><rect width="36.31" height="56" x="13.84" y="8.08" fill="#f0f3f5" transform="rotate(90 32 36.077)"/><path fill="#dd655b" d="M24.29,28.91h-4.92c-0.3,0-0.54-0.24-0.54-0.54v-4.92c0-0.3,0.24-0.54,0.54-0.54h4.92      c0.3,0,0.54,0.24,0.54,0.54v4.92C24.83,28.67,24.59,28.91,24.29,28.91z"/><path fill="#53af97" d="M34.46 28.91h-4.92c-.3 0-.54-.24-.54-.54v-4.92c0-.3.24-.54.54-.54h4.92c.3 0 .54.24.54.54v4.92C35 28.67 34.76 28.91 34.46 28.91zM44.63 28.91h-4.92c-.3 0-.54-.24-.54-.54v-4.92c0-.3.24-.54.54-.54h4.92c.3 0 .54.24.54.54v4.92C45.17 28.67 44.92 28.91 44.63 28.91zM54.79 28.91h-4.92c-.3 0-.54-.24-.54-.54v-4.92c0-.3.24-.54.54-.54h4.92c.3 0 .54.24.54.54v4.92C55.33 28.67 55.09 28.91 54.79 28.91zM14.13 39.08H9.21c-.3 0-.54-.24-.54-.54v-4.92c0-.3.24-.54.54-.54h4.92c.3 0 .54.24.54.54v4.92C14.67 38.84 14.42 39.08 14.13 39.08zM24.29 39.08h-4.92c-.3 0-.54-.24-.54-.54v-4.92c0-.3.24-.54.54-.54h4.92c.3 0 .54.24.54.54v4.92C24.83 38.84 24.59 39.08 24.29 39.08zM34.46 39.08h-4.92c-.3 0-.54-.24-.54-.54v-4.92c0-.3.24-.54.54-.54h4.92c.3 0 .54.24.54.54v4.92C35 38.84 34.76 39.08 34.46 39.08zM44.63 39.08h-4.92c-.3 0-.54-.24-.54-.54v-4.92c0-.3.24-.54.54-.54h4.92c.3 0 .54.24.54.54v4.92C45.17 38.84 44.92 39.08 44.63 39.08zM54.79 39.08h-4.92c-.3 0-.54-.24-.54-.54v-4.92c0-.3.24-.54.54-.54h4.92c.3 0 .54.24.54.54v4.92C55.33 38.84 55.09 39.08 54.79 39.08zM14.13 49.24H9.21c-.3 0-.54-.24-.54-.54v-4.92c0-.3.24-.54.54-.54h4.92c.3 0 .54.24.54.54v4.92C14.67 49 14.42 49.24 14.13 49.24zM24.29 49.24h-4.92c-.3 0-.54-.24-.54-.54v-4.92c0-.3.24-.54.54-.54h4.92c.3 0 .54.24.54.54v4.92C24.83 49 24.59 49.24 24.29 49.24zM34.46 49.24h-4.92C29.24 49.24 29 49 29 48.7v-4.92c0-.3.24-.54.54-.54h4.92c.3 0 .54.24.54.54v4.92C35 49 34.76 49.24 34.46 49.24z"/><path fill="#e4bf6d" d="M44.63,49.24h-4.92c-0.3,0-0.54-0.24-0.54-0.54v-4.92c0-0.3,0.24-0.54,0.54-0.54h4.92      c0.3,0,0.54,0.24,0.54,0.54v4.92C45.17,49,44.92,49.24,44.63,49.24z"/><path fill="#f0f3f5" d="M13.5,12.78H8.41c-0.21,0-0.38-0.17-0.38-0.38v-2.07c0-0.21,0.17-0.38,0.38-0.38h5.08     c0.21,0,0.38,0.17,0.38,0.38v2.07C13.87,12.61,13.7,12.78,13.5,12.78z"/><path fill="#5fc3ab" d="M9.64 5.77c-.44 0-.8.36-.8.8v4.75c0 .44.36.8.8.8.44 0 .8-.36.8-.8V6.57C10.44 6.13 10.08 5.77 9.64 5.77zM12.27 5.77c-.44 0-.8.36-.8.8v4.75c0 .44.36.8.8.8.44 0 .8-.36.8-.8V6.57C13.07 6.13 12.71 5.77 12.27 5.77z"/><path fill="#f0f3f5" d="M27.53,12.78h-5.08c-0.21,0-0.38-0.17-0.38-0.38v-2.07c0-0.21,0.17-0.38,0.38-0.38h5.08     c0.21,0,0.38,0.17,0.38,0.38v2.07C27.9,12.61,27.73,12.78,27.53,12.78z"/><path fill="#5fc3ab" d="M23.67 5.77c-.44 0-.8.36-.8.8v4.75c0 .44.36.8.8.8s.8-.36.8-.8V6.57C24.47 6.13 24.11 5.77 23.67 5.77zM26.3 5.77c-.44 0-.8.36-.8.8v4.75c0 .44.36.8.8.8s.8-.36.8-.8V6.57C27.1 6.13 26.74 5.77 26.3 5.77z"/><path fill="#f0f3f5" d="M41.56,12.78h-5.08c-0.21,0-0.38-0.17-0.38-0.38v-2.07c0-0.21,0.17-0.38,0.38-0.38h5.08     c0.21,0,0.37,0.17,0.37,0.38v2.07C41.93,12.61,41.76,12.78,41.56,12.78z"/><path fill="#5fc3ab" d="M37.7 5.77c-.44 0-.8.36-.8.8v4.75c0 .44.36.8.8.8.44 0 .8-.36.8-.8V6.57C38.5 6.13 38.14 5.77 37.7 5.77zM40.33 5.77c-.44 0-.8.36-.8.8v4.75c0 .44.36.8.8.8.44 0 .8-.36.8-.8V6.57C41.13 6.13 40.77 5.77 40.33 5.77z"/><path fill="#f0f3f5" d="M55.59,12.78H50.5c-0.21,0-0.38-0.17-0.38-0.38v-2.07c0-0.21,0.17-0.38,0.38-0.38h5.08     c0.21,0,0.38,0.17,0.38,0.38v2.07C55.96,12.61,55.79,12.78,55.59,12.78z"/><path fill="#5fc3ab" d="M51.73 5.77c-.44 0-.8.36-.8.8v4.75c0 .44.36.8.8.8s.8-.36.8-.8V6.57C52.53 6.13 52.17 5.77 51.73 5.77zM54.36 5.77c-.44 0-.8.36-.8.8v4.75c0 .44.36.8.8.8s.8-.36.8-.8V6.57C55.16 6.13 54.8 5.77 54.36 5.77z"/></svg>