<svg xmlns="http://www.w3.org/2000/svg" viewBox="0 0 64 64"><rect width="54" height="40" x="7" y="17.5" fill="#4aa5ff" rx="4" ry="4"/><path fill="#21257c" d="M57,58.5H11c-2.75684,0-5-2.24316-5-5V21.5c0-2.75684,2.24316-5,5-5H57c2.75684,0,5,2.24316,5,5V53.5c0,2.75684-2.24316,5-5,5ZM11,18.5c-1.6543,0-3,1.3457-3,3V53.5c0,1.6543,1.3457,3,3,3H57c1.6543,0,3-1.3457,3-3V21.5c0-1.6543-1.3457-3-3-3H11Z"/><path fill="#4aa5ff" d="M57,17.5c0-2.20917-1.79083-4-4-4H7c-2.20911,0-4,1.79083-4,4v3H57v-3Z"/><path fill="#e6f3ff" d="M3,20.5v29c0,2.20911,1.79089,4,4,4H53c2.20917,0,4-1.79089,4-4V20.5H3Z"/><path fill="#21257c" d="M57,21.5H3c-1.29375-.01615-1.33116-1.97641,.00006-2-.00006,0,53.99994,0,53.99994,0,1.29375,.01615,1.33116,1.97641,0,2Z"/><rect width="10" height="8" x="25" y="24.5" fill="#4aa5ff" rx="2" ry="2"/><path fill="#21257c" d="M32,30.5c-.25586,0-.51172-.09766-.70703-.29297l-2-2c-.9205-.92803,.48546-2.33518,1.4141-1.41402-.00004-.00005,1.29293,1.29292,1.29293,1.29292l4.29297-4.29297c.92731-.91983,2.33566,.48478,1.41402,1.4141,.00005-.00004-4.99995,4.99996-4.99995,4.99996-.19531,.19531-.45117,.29297-.70703,.29297Z"/><rect width="10" height="8" x="41" y="24.5" fill="#4aa5ff" rx="2" ry="2"/><path fill="#21257c" d="M48,30.5c-.25586,0-.51172-.09766-.70703-.29297l-2-2c-.9205-.92803,.48546-2.33518,1.4141-1.41402-.00004-.00005,1.29293,1.29292,1.29293,1.29292l4.29297-4.29297c.92731-.91983,2.33566,.48478,1.41402,1.4141,.00005-.00004-4.99995,4.99996-4.99995,4.99996-.19531,.19531-.45117,.29297-.70703,.29297Z"/><rect width="10" height="8" x="9" y="24.5" fill="#4aa5ff" rx="2" ry="2"/><rect width="10" height="8" x="25" y="37.5" fill="#4aa5ff" rx="2" ry="2"/><path fill="#21257c" d="M32,43.5c-.25586,0-.51172-.09766-.70703-.29297l-2-2c-.9205-.92803,.48546-2.33518,1.4141-1.41402-.00004-.00005,1.29293,1.29292,1.29293,1.29292l4.29297-4.29297c.92731-.91983,2.33566,.48478,1.41402,1.4141,.00005-.00004-4.99995,4.99996-4.99995,4.99996-.19531,.19531-.45117,.29297-.70703,.29297Z"/><rect width="10" height="8" x="41" y="37.5" fill="#4aa5ff" rx="2" ry="2"/><rect width="10" height="8" x="9" y="37.5" fill="#4aa5ff" rx="2" ry="2"/><path fill="#4aa5ff" d="M15,49.5h30c1.65575,0,3,1.34425,3,3v1H12v-1c0-1.65575,1.34425-3,3-3Z"/><path fill="#e6f3ff" d="M28,7.5h4c1.65575,0,3,1.34425,3,3v3h-10v-3c0-1.65575,1.34425-3,3-3Z"/><path fill="#21257c" d="M35,14.5h-10c-.55225,0-1-.44727-1-1v-3c0-2.20605,1.79443-4,4-4h4c2.20557,0,4,1.79395,4,4v3c0,.55273-.44775,1-1,1Zm-9-2h8v-2c0-1.10254-.89697-2-2-2h-4c-1.10303,0-2,.89746-2,2v2Z"/><path fill="#4aa5ff" d="M29 10.5c.02524-1.31398 1.97479-1.31317 2 0-.02556 1.31405-1.97511 1.3131-2 0zM11 48.5c-2.21002 0-4 2.23747-4 5 0-2.76253-1.78998-5-4-5 2.21002 0 4-2.23755 4-5 0 2.76245 1.78998 5 4 5z"/><path fill="#21257c" d="M53,54.5H7c-2.75684,0-5-2.24316-5-5V17.5c0-2.75684,2.24316-5,5-5H53c2.75684,0,5,2.24316,5,5V49.5c0,2.75684-2.24316,5-5,5ZM7,14.5c-1.6543,0-3,1.3457-3,3V49.5c0,1.6543,1.3457,3,3,3H53c1.6543,0,3-1.3457,3-3V17.5c0-1.6543-1.3457-3-3-3H7Z"/><path fill="#4aa5ff" d="M48,10.5c-2.21002,0-4,2.23747-4,5,0-2.76253-1.78998-5-4-5,2.21002,0,4-2.23755,4-5,0,2.76245,1.78998,5,4,5Z"/></svg>