<svg xmlns="http://www.w3.org/2000/svg" viewBox="0 0 64 64"><path fill="#8598ab" fillRule="evenodd" d="M34.39,15.71c.08-1.46,.52-2.83,1.24-4.01l3.58,.54,.86,2.52-1.77,.95-1.12,.83-2.8-.83Z"/><path fill="#9dacb9" fillRule="evenodd" d="M24.73,15.71c.08-1.46,.52-2.83,1.24-4.01l3.58,.54,.87,2.52-1.77,.95-1.82,.85-2.11-.85Z"/><path fill="#e2eef2" fillRule="evenodd" d="M5.03,53.58c-.23,1.59,.87,2.86,2.47,2.86h14.61L16.1,15.71h-2.58c-1.6,0-3.08,1.28-3.32,2.86l-.11,.74-1.57,1.22,.99,2.74-4.48,30.3Z"/><path fill="#8598ab" fillRule="evenodd" d="M15.07,15.71c.08-1.46,.52-2.83,1.24-4.01l3.58,.54,.86,2.52-1.77,.95-1.13,.83-2.8-.83Z"/><path fill="#f0f4f6" fillRule="evenodd" d="M16.1,15.71c-1.6,0-2.7,1.28-2.47,2.86l5.17,35c.23,1.59,1.71,2.86,3.32,2.86H56.5c1.6,0,2.7-1.28,2.47-2.86l-5.17-35c-.18-1.21-1.08-2.24-2.21-2.66l-3.6-.2H16.1Z"/><path fill="#e2eef2" fillRule="evenodd" d="M45.93,15.71l3.6,.2c1.13,.42,2.03,1.45,2.21,2.66l5.17,35c.23,1.59-.87,2.86-2.47,2.86h2.06c1.6,0,2.7-1.28,2.47-2.86l-5.17-35c-.18-1.21-1.08-2.24-2.21-2.66l-3.6-.2h-2.06Z"/><path fill="#8598ab" fillRule="evenodd" d="M42.99,7.56c-1.79,0-3.45,.55-4.83,1.49l2.52,2.65c.69-.36,1.48-.56,2.31-.56,2.79,0,5.02,2.23,5.02,5.02,0,1.4-.56,2.64-1.47,3.55-.7,.7-.7,1.84,0,2.54,.7,.7,1.84,.7,2.54,0,1.56-1.56,2.52-3.72,2.52-6.09,0-4.73-3.88-8.61-8.61-8.61Z"/><path fill="#9dacb9" fillRule="evenodd" d="M33.33,7.56c-1.79,0-3.45,.55-4.83,1.49l2.52,2.65c.69-.36,1.48-.56,2.31-.56,2.79,0,5.02,2.23,5.02,5.02,0,1.4-.56,2.64-1.47,3.55-.7,.7-.7,1.84,0,2.54,.7,.7,1.84,.7,2.54,0,1.55-1.56,2.52-3.72,2.52-6.09,0-4.73-3.88-8.61-8.61-8.61Z"/><path fill="#8598ab" fillRule="evenodd" d="M23.66,7.56c-1.79,0-3.45,.55-4.83,1.49l2.52,2.65c.69-.36,1.48-.56,2.31-.56,2.79,0,5.02,2.23,5.02,5.02,0,1.4-.56,2.64-1.47,3.55-.7,.7-.7,1.84,0,2.54,.7,.7,1.84,.7,2.54,0,1.55-1.56,2.52-3.72,2.52-6.09,0-4.73-3.87-8.61-8.61-8.61Z"/><path fill="#9dacb9" fillRule="evenodd" d="M14,7.56c-4.73,0-8.61,3.88-8.61,8.61,0,2.72,1.27,5.16,3.26,6.74,.25,.2,.54,.32,.86,.37l.58-3.96c-.69-.86-1.11-1.95-1.11-3.15,0-2.79,2.23-5.02,5.02-5.02s5.02,2.23,5.02,5.02c0,1.4-.56,2.64-1.47,3.55-.7,.7-.7,1.84,0,2.54,.7,.7,1.84,.7,2.54,0,1.56-1.56,2.52-3.72,2.52-6.09,0-4.73-3.87-8.61-8.61-8.61Z"/><path fill="#fd91ba" fillRule="evenodd" d="M43.07,36.69c1.1,0,2.03,.81,2.18,1.91l.83,5.84c.16,1.1-.54,1.92-1.64,1.92s-2.03-.82-2.19-1.92l-.83-5.84c-.16-1.1,.54-1.91,1.65-1.91Zm-.67-4.74c-3.64,0-6.23,3-5.71,6.65l.83,5.84c.51,3.64,3.95,6.65,7.59,6.65s6.23-3.01,5.71-6.65l-.83-5.84c-.51-3.64-3.95-6.65-7.59-6.65Zm-16.32,0c-1.31,0-2.22,1.06-2.03,2.37,.19,1.31,1.39,2.37,2.7,2.37h1.04l1.7,12.04c.18,1.31,1.39,2.37,2.7,2.37,1.31,0,2.22-1.06,2.03-2.37l-2.04-14.41c-.18-1.31-1.39-2.37-2.7-2.37h-3.41Z"/><path d="M4.82,56.26c.66,.76,1.61,1.18,2.68,1.18H56.5c1.07,0,2.02-.42,2.68-1.18,.66-.76,.93-1.77,.78-2.83l-5.17-35c-.2-1.33-1.08-2.49-2.28-3.15-.45-4.88-4.52-8.72-9.52-8.72-1.7,0-3.32,.52-4.79,1.38-1.43-.85-3.09-1.38-4.88-1.38s-3.32,.52-4.79,1.38c-1.43-.85-3.09-1.38-4.88-1.38s-3.32,.52-4.79,1.38c-1.43-.85-3.09-1.38-4.87-1.38-5.3,0-9.61,4.31-9.61,9.61,0,2.95,1.32,5.69,3.63,7.52,.11,.09,.26,.1,.38,.17l-4.37,29.58c-.16,1.06,.12,2.06,.78,2.83Zm53.16-2.53c.07,.47-.04,.91-.31,1.23-.27,.32-.69,.49-1.17,.49H22.12c-1.1,0-2.17-.92-2.33-2.01L14.62,18.43c-.07-.48,.04-.91,.32-1.23,.27-.31,.68-.49,1.16-.49h1.81c-.12,.86-.44,1.67-1.07,2.29-.52,.52-.82,1.24-.82,1.98s.3,1.46,.82,1.98c1.05,1.05,2.91,1.05,3.95,0,1.68-1.68,2.63-3.89,2.76-6.25h4.02c-.12,.86-.44,1.67-1.07,2.29-.52,.52-.82,1.24-.82,1.98s.3,1.46,.82,1.98,1.26,.82,1.98,.82,1.43-.27,1.98-.82c1.68-1.68,2.63-3.89,2.76-6.25h4.02c-.12,.86-.44,1.67-1.07,2.29-.52,.52-.82,1.24-.82,1.98s.3,1.46,.82,1.98,1.23,.82,1.98,.82,1.45-.29,1.98-.82c1.68-1.69,2.63-3.89,2.76-6.25h4.02c-.12,.86-.44,1.67-1.07,2.29-.52,.52-.82,1.24-.82,1.98s.3,1.46,.82,1.98,1.23,.82,1.98,.82,1.45-.29,1.98-.82c1.4-1.4,2.3-3.16,2.65-5.06,.16,.26,.34,.53,.38,.82l5.17,35ZM10.05,16.57c-.01-.14-.07-.26-.07-.4,0-2.25,1.76-4.02,4.02-4.02,.33,0,.63,.11,.94,.18-.34,.76-.57,1.55-.7,2.38h-.72c-1.4,0-2.66,.76-3.47,1.85Zm7.68-1.85h-1.48c.1-.51,.25-1.01,.46-1.49,.45,.41,.79,.91,1.02,1.49Zm9.66,0h-1.47c.1-.51,.25-1.01,.46-1.49,.45,.41,.79,.91,1.01,1.49Zm-3.49,0h-.44c-.13-.82-.33-1.62-.65-2.36,.29-.06,.55-.2,.85-.2,.34,0,.63,.11,.94,.19-.34,.76-.57,1.55-.7,2.38Zm13.15,0h-1.48c.1-.52,.25-1.01,.46-1.49,.45,.41,.79,.91,1.01,1.49Zm-3.49,0h-.44c-.13-.82-.33-1.62-.65-2.36,.29-.06,.55-.21,.86-.21,.33,0,.63,.11,.94,.18-.34,.76-.57,1.55-.7,2.38Zm9.22,0c-.13-.82-.33-1.62-.65-2.36,.29-.06,.55-.2,.85-.2,1.73,0,3.16,1.05,3.73,2.56h-3.93Zm.2-6.15c4.19,0,7.61,3.41,7.61,7.61,0,2.03-.79,3.94-2.23,5.38-.31,.3-.82,.3-1.12,0-.15-.15-.23-.35-.23-.56s.08-.42,.23-.56c3.73-3.73,.93-10.27-4.25-10.27-.68,0-1.32,.15-1.94,.36-.32-.44-.67-.86-1.06-1.24,.95-.42,1.95-.71,3-.71Zm-9.66,0c4.19,0,7.61,3.41,7.61,7.61,0,2.03-.79,3.94-2.23,5.38-.31,.3-.82,.3-1.12,0-.15-.15-.23-.35-.23-.56s.08-.42,.23-.56c3.84-3.84,.38-10.27-4.25-10.27-.67,0-1.32,.15-1.94,.36-.32-.44-.67-.86-1.06-1.24,.95-.42,1.95-.71,3-.71Zm-9.66,0c4.19,0,7.61,3.41,7.61,7.61,0,2.03-.79,3.94-2.23,5.38-.31,.3-.82,.3-1.12,0-.15-.15-.23-.35-.23-.56s.08-.41,.23-.56c3.8-3.8,.67-10.27-4.26-10.27-.67,0-1.32,.15-1.94,.36-.32-.44-.67-.86-1.06-1.24,.95-.42,1.95-.71,3-.71ZM6.39,16.17c0-4.19,3.41-7.61,7.61-7.61s7.61,3.41,7.61,7.61c0,2.03-.79,3.94-2.23,5.38-.3,.3-.83,.3-1.12,0-.15-.15-.23-.35-.23-.56s.08-.42,.23-.56c3.9-3.9,.65-10.27-4.25-10.27-3.32,0-6.02,2.7-6.02,6.02,0,1.22,.41,2.33,1.07,3.32l-.31,2.11c-1.48-1.43-2.35-3.35-2.35-5.43Zm4.1,7.25h0l.69-4.7c.13-.89,.87-1.63,1.73-1.89-.24,.58-.38,1.21-.28,1.89l5.17,35c.09,.63,.37,1.2,.72,1.72H7.5c-.48,0-.9-.17-1.17-.49-.27-.32-.38-.75-.31-1.23l4.47-30.3Z"/><path d="M43.07,35.69c-.83,0-1.55,.31-2.05,.88-.5,.57-.71,1.34-.59,2.17l.83,5.84c.22,1.59,1.59,2.78,3.18,2.78,.82,0,1.55-.31,2.04-.88,.5-.58,.71-1.35,.59-2.18l-.83-5.84c-.23-1.61-1.56-2.77-3.17-2.77Zm1.9,9.48c-.14,.16-.36,.19-.53,.19-.61,0-1.11-.45-1.2-1.06l-.83-5.84c-.03-.24,0-.45,.12-.58,.14-.16,.37-.2,.54-.2,.61,0,1.11,.44,1.19,1.05l.83,5.84c.04,.25,0,.46-.12,.59Z"/><path d="M50.98 38.46c-.59-4.14-4.43-7.51-8.58-7.51-2.04 0-3.88.81-5.15 2.28-1.29 1.49-1.84 3.44-1.55 5.51l.83 5.84c.58 4.14 4.44 7.51 8.58 7.51 2.04 0 3.87-.81 5.15-2.28 1.29-1.49 1.84-3.45 1.55-5.51l-.83-5.84zm-2.24 10.05c-.89 1.03-2.18 1.59-3.64 1.59-3.13 0-6.16-2.65-6.6-5.79l-.83-5.84c-.21-1.48.17-2.87 1.08-3.92.89-1.03 2.19-1.59 3.64-1.59 3.13 0 6.15 2.65 6.6 5.79l.83 5.84c.21 1.49-.17 2.88-1.08 3.92zM32.01 31.98c-.7-.65-1.61-1.02-2.52-1.02h-3.41c-.88 0-1.68.34-2.26.95-.62.67-.9 1.6-.77 2.55.25 1.78 1.91 3.23 3.69 3.23h.17l1.58 11.18c.25 1.78 1.91 3.23 3.69 3.23.9 0 1.75-.38 2.32-1.03.58-.66.83-1.56.7-2.47l-2.03-14.41c-.12-.83-.53-1.61-1.17-2.21zm.99 17.78c-.19.22-.48.34-.81.34-.8 0-1.6-.7-1.71-1.5l-1.7-12.04c-.07-.49-.49-.86-.99-.86h-1.04c-.8 0-1.6-.7-1.71-1.51-.05-.36.04-.68.25-.91.19-.21.47-.32.79-.32h3.41c.4 0 .83.18 1.16.48.3.28.5.65.56 1.02l2.03 14.41c.05.34-.03.65-.23.88zM30.61 26.95h10.69c.55 0 1-.45 1-1s-.45-1-1-1h-10.69c-.55 0-1 .45-1 1s.45 1 1 1z"/></svg>