<svg xmlns="http://www.w3.org/2000/svg" viewBox="0 0 64 64"><path fill="#323d8c" d="M57.14 12h-1.28v-1a3.009 3.009 0 0 0-3-3H46V5a1 1 0 0 0-2 0v7.28a2 2 0 1 0 2 0V10h6.86a1.003 1.003 0 0 1 1 1v8h-48v-8a1.003 1.003 0 0 1 1-1H12V8H6.86a3.002 3.002 0 0 0-3 3v42a3.002 3.002 0 0 0 3 3h1.28v1a3.003 3.003 0 0 0 3 3h46a3.003 3.003 0 0 0 3-3V15a3.003 3.003 0 0 0-3-3ZM6.86 54a1.003 1.003 0 0 1-1-1V21h48v32a1.003 1.003 0 0 1-1 1Zm51.28 3a1.001 1.001 0 0 1-1 1h-46a1.001 1.001 0 0 1-1-1v-1h42.72a3.009 3.009 0 0 0 3-3V14h1.28a1.001 1.001 0 0 1 1 1Z"/><path fill="#fd677e" d="M15 16a1.992 1.992 0 0 0 1-3.72V10h6V8h-6V5a1 1 0 1 0-2 0v7.28A1.992 1.992 0 0 0 15 16zm10 0a1.992 1.992 0 0 0 1-3.72V10h6V8h-6V5a1 1 0 0 0-2 0v7.28A1.992 1.992 0 0 0 25 16zm10 0a1.992 1.992 0 0 0 1-3.72V10h6V8h-6V5a1 1 0 0 0-2 0v7.28A1.992 1.992 0 0 0 35 16zm6.804 25.1v-7.185a9 9 0 0 0-18 0v1.077a7.56 7.56 0 0 0-6.306 9.477 2.968 2.968 0 1 0 2.004-.242 5.591 5.591 0 1 1 10.911-1.722 5.663 5.663 0 0 1-.264 1.722 2.989 2.989 0 1 0 2.003.241 7.683 7.683 0 0 0 .261-1.963 7.597 7.597 0 0 0-6.61-7.52v-1.07a7 7 0 0 1 14 0v7.184a3 3 0 1 0 2 0zm-22 6.02a.978.978 0 1 1-.978-.977.979.979 0 0 1 .978.976zm12 0a.978.978 0 1 1-.978-.977.979.979 0 0 1 .978.976zm9-2.205a1 1 0 1 1 1-1 1 1 0 0 1-1 1z"/></svg>