<svg xmlns="http://www.w3.org/2000/svg" data-name="Layer 1" viewBox="0 0 98 98"><g data-name="&lt;Group&gt;"><g data-name="&lt;Group&gt;"><path fill="#4b5d63" d="M43.1,31h2.4v.3a13.7,13.7,0,0,1-12,5.2V30.4s.7-5,4.9-6.8a5.4,5.4,0,0,0-.5,2.2A5.2,5.2,0,0,0,43.1,31Z" data-name="&lt;Group&gt;"/><path fill="#4b5d63" d="M64,31v7.9A28.2,28.2,0,0,1,53.3,31H43.1a5.2,5.2,0,0,1-5.2-5.2,5.4,5.4,0,0,1,.5-2.2,4.5,4.5,0,0,1,1-1.4,5.1,5.1,0,0,1,3.7-1.6H53.7a10.4,10.4,0,0,1,9.2,5.8A9.8,9.8,0,0,1,64,31Z" data-name="&lt;Group&gt;"/><path fill="#f7caa5" d="M53.3,31A28.2,28.2,0,0,0,64,38.9v2.8H62.1V40.3H35.3v1.4H33.5V36.5a13.7,13.7,0,0,0,12-5.2V31Z" data-name="&lt;Group&gt;"/><path fill="#00acea" d="M79.2 47.1c-3.3 4.8-7.8 3.6-7.8 3.6v-5h0V43.4A3.7 3.7 0 0 1 74 39.8l5.5-1.6a4.9 4.9 0 0 1 2.4 0l5.5 1.6A3.7 3.7 0 0 1 90 43.4v2.2h0v4.5A10.1 10.1 0 0 1 79.2 47.1zM26.4 46.5V49h-.1v3.3c-6.7 3.4-10.8-2.9-10.8-2.9-4.3-.5-7.9 3.3-7.9 3.3V49.1h0V46.5a3.4 3.4 0 0 1 2.6-3.3l5.6-1.5a8.8 8.8 0 0 1 2.3 0l5.6 1.5A3.4 3.4 0 0 1 26.4 46.5z" data-name="&lt;Group&gt;"/><path fill="#f7caa5" d="M26.3 52.4v6A9.2 9.2 0 0 1 23.6 65l-3.3 2.2a12.8 12.8 0 0 1-3.3.6 9.9 9.9 0 0 1-3-.5 9.5 9.5 0 0 1-6.4-8.9V52.8s3.6-3.8 7.9-3.3C15.5 49.5 19.6 55.8 26.3 52.4zM63.9 45.6A15.2 15.2 0 0 1 54 59.8a15.5 15.5 0 0 1-5.3.9 12.7 12.7 0 0 1-4.8-.8A14.8 14.8 0 0 1 33.5 45.6V41.7h1.8a5.6 5.6 0 1 0 11.1 0V40.3H51v1.4a5.5 5.5 0 0 0 5.5 5.6 5.6 5.6 0 0 0 5.6-5.6h1.8zM90 50.2v5.6a10.9 10.9 0 0 1-2.7 7.1L84 65.2l-3.3.6a9.3 9.3 0 0 1-2.9-.5h-.4a10.1 10.1 0 0 1-6-9.4V50.7s4.5 1.2 7.8-3.6A10.1 10.1 0 0 0 90 50.2z" data-name="&lt;Group&gt;"/><path fill="#edb288" d="M84.1 65.4v2.4h0a4.7 4.7 0 0 1-3.4 1.4 4.2 4.2 0 0 1-2.9-1.4h0V65.4h0a9.3 9.3 0 0 0 2.9.5l3.3-.6v.2zM54.1 63.7h0L49 69l-.2-.2-5-5h0V59.9a12.7 12.7 0 0 0 4.8.8 15.5 15.5 0 0 0 5.3-.9v3.9zM17.1 72.7l-3.1-3h0V67.4h0a9.9 9.9 0 0 0 3 .5 12.8 12.8 0 0 0 3.3-.6v2.4h0l-3.2 3.1z" data-name="&lt;Group&gt;"/><path fill="#d4e1f4" d="M17.1,72.7H17v7.1H3V76a6.4,6.4,0,0,1,6.4-6.3H14Z" data-name="&lt;Group&gt;"/><path fill="#d4e1f4" d="M17.2,72.8l3.2-3.1H27a11.4,11.4,0,0,0-1,4.5v5.7H17V72.8h.2Z" data-name="&lt;Group&gt;"/><path fill="#d4e1f4" d="M37,63.8h6.8l5,5V85.5H26V74.2a11.4,11.4,0,0,1,1-4.5,10.5,10.5,0,0,1,9.4-5.9Z" data-name="&lt;Group&gt;"/><path fill="#d4e1f4" d="M61.8,72.2a3.6,3.6,0,0,0-2.6,6.1,3.6,3.6,0,0,0,2.6,1.1,3.8,3.8,0,0,0,3.6-3.6,3.6,3.6,0,0,0-1.1-2.6A3.6,3.6,0,0,0,61.8,72.2ZM49,69l5.1-5.2h7.5A10.5,10.5,0,0,1,69.9,68,10.3,10.3,0,0,1,72,74.2V85.5H48.7V68.8Z" data-name="&lt;Group&gt;"/><path fill="#d4e1f4" d="M80.7 69.3V79.9H72V74.2A10.3 10.3 0 0 0 69.9 68h7.9A4.2 4.2 0 0 0 80.7 69.3zM95 74.7v5.2H80.7V69.3a4.7 4.7 0 0 0 3.4-1.4h4.5A6.6 6.6 0 0 1 95 74.7z" data-name="&lt;Group&gt;"/><path fill="#00efd1" d="M64.3,73.2a3.6,3.6,0,0,1,1.1,2.6,3.8,3.8,0,0,1-3.6,3.6,3.6,3.6,0,0,1-2.6-1.1,3.6,3.6,0,0,1,5.1-5.1Z" data-name="&lt;Group&gt;"/><path fill="#00acea" d="M62.1 40.3v1.4a5.6 5.6 0 0 1-5.6 5.6A5.5 5.5 0 0 1 51 41.7V40.3zM46.4 40.3v1.4a5.6 5.6 0 1 1-11.1 0V40.3z" data-name="&lt;Group&gt;"/><polygon fill="#00efd1" points="27.9 20.2 27.9 25 20.3 25 20.3 32.6 15.5 32.6 15.5 25 7.8 25 7.8 20.2 15.5 20.2 15.5 12.5 20.3 12.5 20.3 20.2 27.9 20.2" data-name="&lt;Group&gt;"/></g><g data-name="&lt;Group&gt;"><g data-name="&lt;Group&gt;"><path fill="#083863" d="M77.8,69.3a1.6,1.6,0,0,1-1.6-1.5V65.4a1.6,1.6,0,0,1,1.6-1.5,1.5,1.5,0,0,1,1.4,1.5v2.4A1.5,1.5,0,0,1,77.8,69.3Z" data-name="&lt;Path&gt;"/></g><g data-name="&lt;Group&gt;"><path fill="#083863" d="M84.1,69.3a1.5,1.5,0,0,1-1.5-1.5V65.4a1.5,1.5,0,0,1,1.5-1.5,1.5,1.5,0,0,1,1.5,1.5v2.4A1.5,1.5,0,0,1,84.1,69.3Z" data-name="&lt;Path&gt;"/></g><g data-name="&lt;Group&gt;"><path fill="#083863" d="M76.8,57.6a3.1,3.1,0,0,1-3.1-3.2V54a1.5,1.5,0,1,1,3,0v.4a.3.3,0,0,0,.1.2V54a1.5,1.5,0,0,1,1.5-1.5A1.4,1.4,0,0,1,79.8,54v.4A3.1,3.1,0,0,1,76.8,57.6Z" data-name="&lt;Path&gt;"/></g><g data-name="&lt;Group&gt;"><path fill="#083863" d="M84.7,57.6a3.1,3.1,0,0,1-3.1-3.2V54a1.5,1.5,0,0,1,3,0v.4a.1.1,0,1,0,.2,0V54a1.4,1.4,0,0,1,1.5-1.5A1.5,1.5,0,0,1,87.8,54v.4A3.1,3.1,0,0,1,84.7,57.6Z" data-name="&lt;Path&gt;"/></g><g data-name="&lt;Group&gt;"><path fill="#083863" d="M82.5,44.6H78.9a1.5,1.5,0,0,1-1.5-1.5,1.5,1.5,0,0,1,1.5-1.5h3.6A1.5,1.5,0,0,1,84,43.1,1.5,1.5,0,0,1,82.5,44.6Z" data-name="&lt;Path&gt;"/></g><g data-name="&lt;Group&gt;"><path fill="#083863" d="M80.7,46.5A1.5,1.5,0,0,1,79.2,45V41.1a1.5,1.5,0,0,1,3,0V45A1.5,1.5,0,0,1,80.7,46.5Z" data-name="&lt;Path&gt;"/></g><g data-name="&lt;Group&gt;"><path fill="#083863" d="M14,71.1a1.5,1.5,0,0,1-1.5-1.5V67.4a1.5,1.5,0,0,1,3,0v2.2A1.5,1.5,0,0,1,14,71.1Z" data-name="&lt;Path&gt;"/></g><g data-name="&lt;Group&gt;"><path fill="#083863" d="M20.4,71.1a1.5,1.5,0,0,1-1.5-1.5V67.4a1.5,1.5,0,0,1,1.5-1.5,1.5,1.5,0,0,1,1.5,1.5v2.2A1.5,1.5,0,0,1,20.4,71.1Z" data-name="&lt;Path&gt;"/></g><g data-name="&lt;Group&gt;"><path fill="#083863" d="M13,60a3.1,3.1,0,0,1-3.1-3.1v-.4a1.5,1.5,0,0,1,3,0v.4c0,.1.2.1.2,0v-.4a1.5,1.5,0,0,1,3,0v.4A3.1,3.1,0,0,1,13,60Z" data-name="&lt;Path&gt;"/></g><g data-name="&lt;Group&gt;"><path fill="#083863" d="M21,60a3.1,3.1,0,0,1-3.1-3.1v-.4A1.5,1.5,0,0,1,19.4,55a1.5,1.5,0,0,1,1.5,1.5v.4c0,.1.2.1.2,0v-.4A1.5,1.5,0,0,1,22.6,55a1.5,1.5,0,0,1,1.5,1.5v.4A3.1,3.1,0,0,1,21,60Z" data-name="&lt;Path&gt;"/></g><g data-name="&lt;Group&gt;"><path fill="#083863" d="M18.8,47.7H15.2a1.5,1.5,0,0,1,0-3h3.6a1.5,1.5,0,0,1,0,3Z" data-name="&lt;Path&gt;"/></g><g data-name="&lt;Group&gt;"><path fill="#083863" d="M17,49.5A1.5,1.5,0,0,1,15.5,48V44.4a1.5,1.5,0,0,1,3,0V48A1.5,1.5,0,0,1,17,49.5Z" data-name="&lt;Path&gt;"/></g><g data-name="&lt;Group&gt;"><path fill="#083863" d="M20.3,34.1H15.5A1.5,1.5,0,0,1,14,32.6V26.5H7.8A1.5,1.5,0,0,1,6.3,25V20.2a1.5,1.5,0,0,1,1.5-1.5H14V12.5A1.5,1.5,0,0,1,15.5,11h4.8a1.5,1.5,0,0,1,1.5,1.5v6.2h6.1a1.5,1.5,0,0,1,1.5,1.5V25a1.5,1.5,0,0,1-1.5,1.5H21.8v6.1A1.5,1.5,0,0,1,20.3,34.1Zm-3.3-3h1.8V25a1.5,1.5,0,0,1,1.5-1.5h6.1V21.7H20.3a1.5,1.5,0,0,1-1.5-1.5V14H17v6.2a1.5,1.5,0,0,1-1.5,1.5H9.3v1.8h6.2A1.5,1.5,0,0,1,17,25Z" data-name="&lt;Compound Path&gt;"/></g><g data-name="&lt;Group&gt;"><path fill="#083863" d="M88.6,66H88a11.7,11.7,0,0,0,6.5-5.3,12.6,12.6,0,0,0-.1-13.2A8.7,8.7,0,0,0,92,44.9V43.4a5.5,5.5,0,0,0-3.9-5.1l-5.7-1.5a5.8,5.8,0,0,0-3.2,0l-5.5,1.5A5.2,5.2,0,0,0,70,43.4v1.4a9.1,9.1,0,0,0-2.7,2.8,12.4,12.4,0,0,0-.4,13.1A11.9,11.9,0,0,0,73.5,66h-3c-2.2-2-5.4-4-8.9-4H56V60.7A17.7,17.7,0,0,0,65.5,47a4.1,4.1,0,0,0,2.9-1.3,4.4,4.4,0,0,0,1-3.2c0-2.3-1.4-4.2-4.4-4.5V31a12.1,12.1,0,0,0-1-5.4A11.5,11.5,0,0,0,53.7,19H43.1a6.7,6.7,0,0,0-4.7,2,5.3,5.3,0,0,0-1.1,1.5c-4.5,2.2-5.3,7.4-5.3,7.7V38a4.6,4.6,0,0,0-2.9,1.3,4.4,4.4,0,0,0-1.3,3.2A4.5,4.5,0,0,0,32.1,47a16.3,16.3,0,0,0,4.6,10.4A16.9,16.9,0,0,0,42,60.9V62H36.4c-4.2,0-8.1,3-10.2,6H21.5l2.9-1.8.2-.2a10.5,10.5,0,0,0,3.1-6.2,3.3,3.3,0,0,0,2.8-3.3A3.7,3.7,0,0,0,28,53.3V46.5a5,5,0,0,0-3.8-4.8l-5.7-1.4a5.5,5.5,0,0,0-3.1,0L9.8,41.7A5.1,5.1,0,0,0,6,46.5V49H6v4.2a3.7,3.7,0,0,0-2.5,3.2,3.3,3.3,0,0,0,2.7,3.3c.5,3.6,2.8,7.2,6,8.2H9.4C5.1,68,2,71.7,2,76v3.9c0,.8.2,1.1,1,1.1H25v4.5c0,.8.2,1.5,1,1.5H72c.8,0,1-.7,1-1.5V81H95c.8,0,1-.3,1-1.1V74.7C96,70.1,92.9,66,88.6,66Zm-7.8,1.8a2,2,0,0,1-1.5-.6H81l1.9-.4A2.9,2.9,0,0,1,80.8,67.8Zm11.1-8.4a12.9,12.9,0,0,1-2,2.5,12.4,12.4,0,0,0,1.5-4.7,3.2,3.2,0,0,0,1.6-.9A8.9,8.9,0,0,1,91.9,59.4Zm.5-8.7-.9-.4V49a.3.3,0,0,0,.1.2A5.5,5.5,0,0,1,92.4,50.7Zm-18-9.5,5.5-1.5a2.2,2.2,0,0,1,1.6,0l5.8,1.5A2.5,2.5,0,0,1,89,43.4v2.1s-1,.1-1,.2V49a7.9,7.9,0,0,1-7.8-2.8,1.3,1.3,0,0,0-1.1-.6,1.1,1.1,0,0,0-1.1.6,6.4,6.4,0,0,1-5,3.1V43.4A2.3,2.3,0,0,1,74.4,41.2Zm-4.5,7.7v1.4l-1,.5a8,8,0,0,1,.8-1.6C69.8,49.1,69.9,49,69.9,48.9Zm-.4,10.5a9.6,9.6,0,0,1-1.1-3.1,3.2,3.2,0,0,0,1.6.9A13,13,0,0,0,71.6,62,10.9,10.9,0,0,1,69.5,59.4ZM73,52.3c2,0,3.9-.5,6.1-2.9A11.7,11.7,0,0,0,88,52.1v3.7a8.3,8.3,0,0,1-2,5.9l-2.7,2.1-2.8.5a5.4,5.4,0,0,1-2.2-.4H78a8.7,8.7,0,0,1-5-8ZM61.8,73.7a1.8,1.8,0,0,1,1.4.6,2.1,2.1,0,0,1,.7,1.5,1.9,1.9,0,0,1-.7,1.4,2.1,2.1,0,0,1-2.9,0,1.8,1.8,0,0,1-.6-1.4A2.1,2.1,0,0,1,61.8,73.7ZM49,66.9l-4-3.7V61.9a22.2,22.2,0,0,0,3.7.3,19.5,19.5,0,0,0,4.3-.5v1.5ZM51,39H35.3l-.3-.2v-.7A16,16,0,0,0,46.5,32h6.1a29.4,29.4,0,0,0,7.9,7Zm9.6,3a4.2,4.2,0,0,1-4.1,3.9,4.1,4.1,0,0,1-4-3.9Zm-12.7-.2h1.6v.6H47.9Zm-3,.2a4.2,4.2,0,0,1-4.1,3.9,4.1,4.1,0,0,1-4-3.9Zm21.7.5a1.6,1.6,0,0,1-.5,1.1,1,1,0,0,1-.7.4V41A1.6,1.6,0,0,1,66.6,42.5ZM43.1,22H53.7a8.3,8.3,0,0,1,7.6,5,8.9,8.9,0,0,1,.7,4v5.5a42,42,0,0,1-7.8-6.7c-.3-.4-.5-.8-.9-.8H43.1a3.5,3.5,0,0,1-3.7-3.4,2.9,2.9,0,0,1,.3-1.4h.1a2.6,2.6,0,0,1,.7-1.1A3.6,3.6,0,0,1,43.1,22Zm-6.6,5a6.7,6.7,0,0,0,5.7,5.4A12.6,12.6,0,0,1,35,35.1V30.5A9.3,9.3,0,0,1,36.5,27ZM30.8,42.5a1.6,1.6,0,0,1,.4-1.1L32,41v3A1.4,1.4,0,0,1,30.8,42.5ZM35,45.7a7.1,7.1,0,0,0,5.8,2.9,7.2,7.2,0,0,0,6-3.6h3.7a7.4,7.4,0,0,0,6,3.6,7,7,0,0,0,5.8-3,13.8,13.8,0,0,1-8.8,12.7,13.6,13.6,0,0,1-9.1.2A14.3,14.3,0,0,1,39,55.2,13.5,13.5,0,0,1,35,45.7Zm-17.8,25-1.6-1.5h3.2ZM10.5,44.6l5.6-1.4a4.3,4.3,0,0,1,1.6,0l5.7,1.4A2,2,0,0,1,25,46.5v4.9c-5,1.9-7.8-2.2-8.2-2.7a1.4,1.4,0,0,0-1.2-.7c-2.5-.3-4.6.7-6.6,1.7V46.5A2,2,0,0,1,10.5,44.6ZM9,58.4V53.5c1-.8,3.1-2.5,5.6-2.6a10.5,10.5,0,0,0,7.9,4,8.5,8.5,0,0,0,2.5-.4v3.9a7.6,7.6,0,0,1-2.3,5.4l-3.1,2a7.4,7.4,0,0,1-5.1,0A7.7,7.7,0,0,1,9,58.4ZM5,76c0-2.7,1.7-5,4.4-5h4L15,73.3V78H5Zm13,2V73.7L21,71h3.9a17.4,17.4,0,0,0,.1,3.2V78Zm10-3.8a8.2,8.2,0,0,1,.9-3.8c1.3-2.8,3.1-4.7,7.1-5v1A3.9,3.9,0,0,0,33,68a6.2,6.2,0,0,0-2,4.4v6.5c0,.8.6,1.1,1.4,1.1h1.9a1.5,1.5,0,0,0,0-3H34V72.4a3.2,3.2,0,0,1,.9-2.3,2.7,2.7,0,0,1,2.1-.9,3.1,3.1,0,0,1,3,3.2V77h-.6a1.5,1.5,0,0,0,0,3h2.3c.8,0,1.3-.3,1.3-1.1V72.4a6.5,6.5,0,0,0-4-6V65h4.2L47,69.3V84H28ZM70,84H50V69.9L54.8,65H60v5.9a5.1,5.1,0,0,0-3.4,4.9,5.2,5.2,0,0,0,8.8,3.6,5.5,5.5,0,0,0,1.5-3.6,4.9,4.9,0,0,0-1.7-3.6A4.8,4.8,0,0,0,63,70.9V65.5a8.8,8.8,0,0,1,5.3,3.4A8.4,8.4,0,0,1,70,74.2Zm2.5-15h4.6c.7,1,.9,1.3,1.9,1.5V78H73V74.2A16.1,16.1,0,0,0,72.5,69ZM93,78H82V70.6A4.1,4.1,0,0,0,84.7,69h3.9c2.7,0,4.4,2.8,4.4,5.7Z" data-name="&lt;Compound Path&gt;"/><path fill="#083863" d="M54.5 72H53.2a1.5 1.5 0 0 0 0 3h1.3a1.5 1.5 0 0 0 0-3zM54.5 76H53.2a1.5 1.5 0 1 0 0 3h1.3a1.5 1.5 0 0 0 0-3z" data-name="&lt;Path&gt;"/></g></g></g></svg>