<svg xmlns="http://www.w3.org/2000/svg" data-name="Layer 2" viewBox="0 0 100 100"><path d="M18.75 94.75h62.5a1 1 0 0 0 1-1V75c0-15.19-9.41-25.8-22.87-25.8a1 1 0 0 0-.8.38C57 51.67 53.8 53 50.31 53.07c-3.68.07-7-1.24-8.92-3.52a1 1 0 0 0-.76-.35C27.16 49.2 17.75 59.81 17.75 75V93.75A1 1 0 0 0 18.75 94.75zm31.6-39.68a14.52 14.52 0 0 0 6.76-1.72L50 72.17l-7.14-18.9A14.63 14.63 0 0 0 50.35 55.07zM19.75 75c0-11.26 5.26-19.58 13.63-22.58v9.26a6.54 6.54 0 0 0-5.53 6.44V78.6a1 1 0 0 0 1 1h2.4v-2h-1.4V68.12a4.53 4.53 0 0 1 9 0V77.6H37.5v2h2.4a1 1 0 0 0 1-1V68.12a6.54 6.54 0 0 0-5.52-6.44V51.83a20.91 20.91 0 0 1 4.56-.61l9.12 24.13a1 1 0 0 0 1.88 0l9.12-24.13a21.2 21.2 0 0 1 5.44.85V64.76a4.17 4.17 0 1 0 2 0v-12C75.36 56 80.25 64.14 80.25 75V92.75H19.75zM66.5 66.63a2.17 2.17 0 1 1-2.17 2.17A2.17 2.17 0 0 1 66.5 66.63zM33.27 30.83h.35a16.6 16.6 0 0 0 32.76 0h.35a6.15 6.15 0 0 0 6.15-6.14v-1a3.82 3.82 0 0 0-3.82-3.81H66.63V14.69a9.45 9.45 0 0 0-9.44-9.44H42.81a9.44 9.44 0 0 0-9.43 9.44v5.19H30.94a3.82 3.82 0 0 0-3.81 3.81v1A6.14 6.14 0 0 0 33.27 30.83zm33.36-2.7V21.88h2.43a1.82 1.82 0 0 1 1.82 1.81v1a4.15 4.15 0 0 1-4.15 4.14h-.1zM50 42.75A14.63 14.63 0 0 1 36.08 32.59c.22-1.69 5.75-3.46 13.92-3.46a40.87 40.87 0 0 1 10 1.1c2.36.65 3.8 1.52 3.91 2.36A14.63 14.63 0 0 1 50 42.75zM35.38 20.88V14.69a7.44 7.44 0 0 1 7.43-7.44H57.19a7.45 7.45 0 0 1 7.44 7.44v8.14A6.17 6.17 0 0 1 60 21c-1.76-2-1.23-5.19-1.22-5.21a1 1 0 0 0-.58-1.1A1 1 0 0 0 57 15c-4.66 6.08-18.29 7.5-21.64 7.76zm0 3.91c3-.21 15.15-1.37 21.4-6.66a7.63 7.63 0 0 0 1.72 4.18 8.05 8.05 0 0 0 6.13 2.52v3.3a16 16 0 0 1-.15 2c-2.77-2.15-9-3-14.48-3s-11.71.81-14.48 3a16 16 0 0 1-.14-2zm-6.25-1.1a1.81 1.81 0 0 1 1.81-1.81h2.44v7h-.11a4.14 4.14 0 0 1-4.14-4.14z"/><rect width="6.5" height="2" x="66.5" y="80.25"/></svg>