<svg xmlns="http://www.w3.org/2000/svg" enable-background="new 0 0 512 512" viewBox="0 0 512 512"><path fill="#046294" d="M237.484,328.849c-0.591-0.683-1.19-1.36-1.799-2.03c-1.127-1.238-2.285-2.452-3.475-3.642
		c-0.147-0.147-0.294-0.299-0.444-0.437c-0.086-0.079-0.171-0.16-0.255-0.242c-18.841-18.511-43.708-29.339-70.021-30.492
		c-1.655-0.07-3.252-0.106-4.737-0.106c-58.93,0.029-106.833,48.544-106.833,108.147v86.049h213.56v-87.407
		c0-1.507-0.032-2.951-0.095-4.292C262.417,370.079,253.281,347.103,237.484,328.849z"/><path fill="#ecb220" d="M156.701,271.899c39.622-0.028,71.819-32.246,71.819-71.819c0-39.601-32.218-71.819-71.819-71.819
		s-71.819,32.218-71.819,71.819S117.1,271.899,156.701,271.899z"/><path fill="#046294" d="M360.088,189.838c-29.088-1.284-56.8,9.195-78.019,29.501c-21.635,20.703-33.549,48.595-33.549,78.54v13.376
		c0.027,0.029,0.053,0.059,0.08,0.088c1.061,1.116,2.095,2.252,3.111,3.401c0.148,0.168,0.299,0.333,0.446,0.502
		c0.986,1.127,1.948,2.271,2.89,3.428c0.181,0.222,0.362,0.445,0.541,0.669c0.932,1.16,1.846,2.333,2.734,3.522
		c0.138,0.185,0.273,0.372,0.41,0.558c0.898,1.215,1.778,2.442,2.63,3.686c0.033,0.048,0.067,0.094,0.1,0.142
		c0.863,1.263,1.695,2.544,2.51,3.835c0.138,0.219,0.278,0.436,0.415,0.656c0.775,1.245,1.527,2.503,2.257,3.773
		c0.143,0.249,0.284,0.498,0.425,0.747c0.731,1.29,1.442,2.589,2.126,3.903c0.089,0.171,0.174,0.343,0.262,0.514
		c0.668,1.298,1.315,2.606,1.938,3.926c0.059,0.125,0.12,0.247,0.179,0.372c0.635,1.357,1.239,2.728,1.825,4.107
		c0.107,0.251,0.214,0.501,0.319,0.753c0.563,1.35,1.103,2.71,1.62,4.079c0.095,0.253,0.188,0.507,0.282,0.761
		c0.521,1.408,1.022,2.824,1.493,4.251c0.041,0.125,0.079,0.251,0.12,0.376c0.456,1.399,0.886,2.807,1.293,4.222
		c0.051,0.177,0.105,0.352,0.155,0.529c0.406,1.436,0.783,2.882,1.138,4.333c0.065,0.267,0.131,0.533,0.194,0.801
		c0.343,1.439,0.662,2.885,0.954,4.338c0.048,0.24,0.093,0.48,0.14,0.72c0.296,1.516,0.572,3.038,0.813,4.568
		c0.006,0.038,0.011,0.076,0.017,0.114c0.238,1.52,0.442,3.047,0.625,4.579c0.017,0.14,0.041,0.279,0.057,0.42h179.459v-87.406
		c0-28.521-11.105-55.338-31.27-75.513C411.881,202.081,386.765,191.011,360.088,189.838z"/><path fill="#ecb220" d="M355.301,169.73c39.6,0,71.817-32.217,71.817-71.817s-32.217-71.817-71.817-71.817
		s-71.817,32.217-71.817,71.817S315.701,169.73,355.301,169.73z"/><path d="M444.953,206.868c-12.839-12.839-28.08-22.626-44.694-28.924c27.944-15.76,46.859-45.726,46.859-80.031
		c0-50.628-41.189-91.817-91.817-91.817s-91.817,41.189-91.817,91.817c0,34.35,18.965,64.35,46.97,80.093
		c-15.466,5.939-29.782,14.987-42.213,26.883c-24.367,23.318-38.699,55.709-39.665,89.355c-8.4-5.792-17.438-10.534-26.925-14.132
		c27.949-15.763,46.869-45.734,46.869-80.032c0-50.629-41.19-91.819-91.819-91.819s-91.819,41.19-91.819,91.819
		c0,34.361,18.976,64.369,47.014,80.109c-47.859,18.351-81.975,65.159-81.975,119.858v95.805c0,5.303,4.14,9.684,9.435,9.984
		c3.047,0.173,6.095,0.26,9.059,0.26h216.848c3.006,0,5.968-0.084,8.803-0.25c5.286-0.31,9.415-4.688,9.415-9.983v-91.935h180.38
		c3.003,0,5.964-0.084,8.802-0.25c5.287-0.309,9.417-4.687,9.417-9.983v-97.173C482.079,262.661,468.895,230.822,444.953,206.868z
		 M263.48,486.096H49.921v-86.049c0-59.604,47.903-108.118,106.833-108.147c1.485,0,3.082,0.036,4.737,0.106
		c26.312,1.153,51.179,11.981,70.021,30.492c0.083,0.082,0.168,0.163,0.255,0.242c0.15,0.137,0.297,0.289,0.444,0.437
		c1.19,1.19,2.348,2.405,3.475,3.642c0.61,0.67,1.208,1.347,1.799,2.03c15.797,18.254,24.932,41.23,25.901,65.549
		c0.063,1.341,0.095,2.785,0.095,4.292V486.096z M156.701,128.261c39.601,0,71.819,32.218,71.819,71.819
		c0,39.574-32.197,71.792-71.819,71.819c-39.601,0-71.819-32.218-71.819-71.819S117.1,128.261,156.701,128.261z M462.079,383.928
		H282.62c-0.016-0.141-0.041-0.279-0.057-0.42c-0.183-1.532-0.387-3.06-0.625-4.579c-0.006-0.038-0.011-0.076-0.017-0.114
		c-0.241-1.53-0.517-3.052-0.813-4.568c-0.047-0.24-0.091-0.48-0.14-0.72c-0.292-1.453-0.612-2.899-0.954-4.338
		c-0.064-0.267-0.129-0.534-0.194-0.801c-0.356-1.452-0.732-2.897-1.138-4.333c-0.05-0.177-0.104-0.352-0.155-0.529
		c-0.407-1.415-0.837-2.823-1.293-4.222c-0.041-0.125-0.079-0.251-0.12-0.376c-0.47-1.427-0.972-2.843-1.493-4.251
		c-0.094-0.254-0.186-0.508-0.282-0.761c-0.516-1.369-1.056-2.729-1.62-4.079c-0.105-0.252-0.213-0.502-0.319-0.753
		c-0.586-1.379-1.191-2.749-1.825-4.107c-0.058-0.125-0.12-0.248-0.179-0.372c-0.623-1.32-1.27-2.628-1.938-3.926
		c-0.088-0.171-0.173-0.344-0.262-0.514c-0.684-1.313-1.396-2.613-2.126-3.903c-0.141-0.249-0.282-0.499-0.425-0.747
		c-0.73-1.27-1.482-2.528-2.257-3.773c-0.137-0.219-0.277-0.437-0.415-0.656c-0.815-1.291-1.647-2.572-2.51-3.835
		c-0.033-0.048-0.067-0.094-0.1-0.142c-0.852-1.244-1.732-2.47-2.63-3.686c-0.137-0.186-0.272-0.373-0.41-0.558
		c-0.889-1.189-1.802-2.362-2.734-3.522c-0.18-0.223-0.36-0.446-0.541-0.669c-0.943-1.157-1.904-2.301-2.89-3.428
		c-0.147-0.168-0.298-0.334-0.446-0.502c-1.016-1.149-2.05-2.285-3.111-3.401c-0.027-0.029-0.053-0.059-0.08-0.088v-13.376
		c0-29.945,11.915-57.837,33.549-78.54c21.219-20.306,48.931-30.785,78.019-29.501c26.677,1.172,51.793,12.243,70.721,31.17
		c20.165,20.175,31.27,46.992,31.27,75.513V383.928z M355.301,26.096c39.6,0,71.817,32.217,71.817,71.817
		s-32.217,71.817-71.817,71.817s-71.817-32.217-71.817-71.817S315.701,26.096,355.301,26.096z"/></svg>